<svg width="24" height="25" viewBox="0 0 24 25" fill="none" xmlns="http://www.w3.org/2000/svg">
<path d="M5 5.5H18C18.7956 5.5 19.5587 5.81607 20.1213 6.37868C20.6839 6.94129 21 7.70435 21 8.5V17.5C21 18.2956 20.6839 19.0587 20.1213 19.6213C19.5587 20.1839 18.7956 20.5 18 20.5H5C4.20435 20.5 3.44129 20.1839 2.87868 19.6213C2.31607 19.0587 2 18.2956 2 17.5V8.5C2 7.70435 2.31607 6.94129 2.87868 6.37868C3.44129 5.81607 4.20435 5.5 5 5.5ZM5 6.5C4.5 6.5 4.06 6.67 3.72 6.97L11.5 12L19.28 6.97C18.94 6.67 18.5 6.5 18 6.5H5ZM11.5 13.21L3.13 7.78C3.05 8 3 8.25 3 8.5V17.5C3 18.0304 3.21071 18.5391 3.58579 18.9142C3.96086 19.2893 4.46957 19.5 5 19.5H18C18.5304 19.5 19.0391 19.2893 19.4142 18.9142C19.7893 18.5391 20 18.0304 20 17.5V8.5C20 8.25 19.95 8 19.87 7.78L11.5 13.21Z" fill="#B2B2B2"/>
</svg>
