<svg width="41" height="14" viewBox="0 0 41 14" fill="none" xmlns="http://www.w3.org/2000/svg">
<path d="M2.12 7.096H7.896V8.472H2.12V7.096ZM2.28 13H0.68V1.8H8.584V3.192H2.28V13ZM10.6123 13V4.52H12.1483V13H10.6123ZM11.3803 2.888C11.0816 2.888 10.8309 2.792 10.6283 2.6C10.4363 2.408 10.3403 2.17333 10.3403 1.896C10.3403 1.608 10.4363 1.368 10.6283 1.176C10.8309 0.984 11.0816 0.888 11.3803 0.888C11.6789 0.888 11.9243 0.984 12.1163 1.176C12.3189 1.35733 12.4203 1.58667 12.4203 1.864C12.4203 2.152 12.3243 2.39733 12.1323 2.6C11.9403 2.792 11.6896 2.888 11.3803 2.888ZM15.081 13V1.128H16.617V13H15.081ZM22.6805 13.096C21.8272 13.096 21.1658 12.8667 20.6965 12.408C20.2272 11.9493 19.9925 11.2933 19.9925 10.44V2.664H21.5285V10.376C21.5285 10.8347 21.6405 11.1867 21.8645 11.432C22.0992 11.6773 22.4298 11.8 22.8565 11.8C23.3365 11.8 23.7365 11.6667 24.0565 11.4L24.5365 12.504C24.3018 12.7067 24.0192 12.856 23.6885 12.952C23.3685 13.048 23.0325 13.096 22.6805 13.096ZM18.5525 5.784V4.52H23.9605V5.784H18.5525ZM29.8883 13.096C28.9816 13.096 28.1816 12.9093 27.4883 12.536C26.8056 12.1627 26.2723 11.6507 25.8883 11C25.5149 10.3493 25.3283 9.60267 25.3283 8.76C25.3283 7.91733 25.5096 7.17067 25.8723 6.52C26.2456 5.86933 26.7523 5.36267 27.3923 5C28.0429 4.62667 28.7736 4.44 29.5843 4.44C30.4056 4.44 31.1309 4.62133 31.7603 4.984C32.3896 5.34667 32.8803 5.85867 33.2323 6.52C33.5949 7.17067 33.7763 7.93333 33.7763 8.808C33.7763 8.872 33.7709 8.94667 33.7603 9.032C33.7603 9.11733 33.7549 9.19733 33.7443 9.272H26.5283V8.168H32.9443L32.3203 8.552C32.3309 8.008 32.2189 7.52267 31.9843 7.096C31.7496 6.66933 31.4243 6.33867 31.0083 6.104C30.6029 5.85867 30.1283 5.736 29.5843 5.736C29.0509 5.736 28.5763 5.85867 28.1603 6.104C27.7443 6.33867 27.4189 6.67467 27.1843 7.112C26.9496 7.53867 26.8323 8.02933 26.8323 8.584V8.84C26.8323 9.40533 26.9603 9.912 27.2163 10.36C27.4829 10.7973 27.8509 11.1387 28.3203 11.384C28.7896 11.6293 29.3283 11.752 29.9363 11.752C30.4376 11.752 30.8909 11.6667 31.2963 11.496C31.7123 11.3253 32.0749 11.0693 32.3843 10.728L33.2323 11.72C32.8483 12.168 32.3683 12.5093 31.7923 12.744C31.2269 12.9787 30.5923 13.096 29.8883 13.096ZM35.9091 13V4.52H37.3811V6.824L37.2371 6.248C37.4718 5.66133 37.8665 5.21333 38.4211 4.904C38.9758 4.59467 39.6585 4.44 40.4691 4.44V5.928C40.4051 5.91733 40.3411 5.912 40.2771 5.912C40.2238 5.912 40.1705 5.912 40.1171 5.912C39.2958 5.912 38.6451 6.15733 38.1651 6.648C37.6851 7.13867 37.4451 7.848 37.4451 8.776V13H35.9091Z" fill="black" fill-opacity="0.3"/>
</svg>
