<svg width="20" height="21" viewBox="0 0 20 21" fill="none" xmlns="http://www.w3.org/2000/svg">
<path d="M1.49909 5.42649C1.49378 5.32813 1.46914 5.23178 1.42658 5.14295C1.38403 5.05411 1.32439 4.97452 1.25108 4.90873C1.17777 4.84294 1.09222 4.79224 0.999307 4.75951C0.906399 4.72678 0.807954 4.71267 0.709594 4.71799C0.611234 4.72331 0.514885 4.74795 0.426047 4.79051C0.33721 4.83306 0.257624 4.8927 0.191833 4.96601C0.126043 5.03932 0.0753369 5.12487 0.0426098 5.21778C0.0098827 5.31069 -0.00422434 5.40913 0.0010942 5.50749L1.49909 5.42649ZM2.46509 1.59349C2.33376 1.73863 2.26437 1.92937 2.27174 2.12497C2.27912 2.32057 2.36267 2.50554 2.50456 2.64038C2.64645 2.77522 2.83543 2.84924 3.03115 2.84665C3.22688 2.84405 3.41383 2.76505 3.55209 2.62649L2.46509 1.59349ZM8.41109 18.3135C8.49449 18.3672 8.58772 18.4039 8.68539 18.4214C8.78306 18.4388 8.88322 18.4367 8.98007 18.4152C9.07692 18.3937 9.16854 18.3532 9.24962 18.296C9.3307 18.2388 9.39963 18.1661 9.45242 18.0821C9.50521 17.9981 9.5408 17.9044 9.55714 17.8066C9.57348 17.7087 9.57024 17.6086 9.54761 17.512C9.52497 17.4154 9.4834 17.3242 9.42529 17.2438C9.36719 17.1634 9.2937 17.0953 9.20909 17.0435L8.41109 18.3135ZM12.8601 18.5595C12.6653 18.5188 12.4623 18.5571 12.2958 18.6661C12.1292 18.775 12.0128 18.9457 11.9721 19.1405C11.9314 19.3353 11.9697 19.5383 12.0787 19.7048C12.1876 19.8714 12.3583 19.9878 12.5531 20.0285L12.8601 18.5595ZM13.3921 14.0455L13.8471 13.5655L12.7591 12.5325L12.3041 13.0125L13.3921 14.0455ZM15.3461 13.3635L17.2561 14.4635L18.0051 13.1635L16.0941 12.0635L15.3461 13.3635ZM17.6251 16.7435L16.2041 18.2385L17.2921 19.2725L18.7121 17.7765L17.6251 16.7435ZM6.10609 14.4605C2.23009 10.3795 1.58009 6.93649 1.49909 5.42649L0.0010942 5.50749C0.101094 7.35749 0.885094 11.1415 5.01909 15.4935L6.10609 14.4605ZM7.48209 7.82349L7.76809 7.52149L6.68109 6.48849L6.39409 6.79049L7.48209 7.82349ZM7.99409 3.76149L6.73309 1.97849L5.50809 2.84449L6.76809 4.62749L7.99409 3.76149ZM6.93709 7.30649C6.75712 7.13305 6.57544 6.96137 6.39209 6.79149L6.39009 6.79349L6.38709 6.79649C6.36934 6.81486 6.35265 6.83423 6.33709 6.85449C6.23907 6.98424 6.1615 7.12825 6.10709 7.28149C6.00909 7.55649 5.95709 7.92049 6.02309 8.37449C6.15309 9.26649 6.73809 10.4655 8.26509 12.0745L9.35309 11.0405C7.92509 9.53749 7.57309 8.61249 7.50709 8.15649C7.47509 7.93649 7.50709 7.82149 7.52009 7.78449L7.52809 7.76549C7.51991 7.77866 7.51054 7.79104 7.50009 7.80249C7.49423 7.80928 7.48823 7.81695 7.48209 7.82349L6.93709 7.30649ZM8.26509 12.0735C9.78809 13.6775 10.9381 14.3075 11.8151 14.4505C12.2661 14.5235 12.6311 14.4645 12.9071 14.3555C13.0604 14.2956 13.2029 14.2111 13.3291 14.1055L13.3641 14.0715L13.3781 14.0575C13.3805 14.0555 13.3828 14.0535 13.3851 14.0515L13.3881 14.0485L13.3891 14.0465C13.3891 14.0465 13.3911 14.0455 12.8471 13.5285C12.3031 13.0125 12.3041 13.0115 12.3041 13.0105L12.3061 13.0095L12.3081 13.0065L12.3141 13.0015C12.3292 12.9869 12.3449 12.9729 12.3611 12.9595C12.3701 12.9535 12.3691 12.9555 12.3561 12.9605C12.3361 12.9685 12.2461 13.0005 12.0561 12.9695C11.6541 12.9035 10.7861 12.5495 9.35309 11.0405L8.26509 12.0735ZM6.73309 1.97849C5.71909 0.544492 3.69109 0.301492 2.46509 1.59349L3.55209 2.62649C4.07509 2.07649 4.99609 2.11949 5.50809 2.84449L6.73309 1.97849ZM16.2041 18.2385C15.9251 18.5325 15.6341 18.6905 15.3501 18.7185L15.4971 20.2105C16.2441 20.1375 16.8491 19.7395 17.2921 19.2725L16.2041 18.2385ZM7.76809 7.52149C8.73609 6.50249 8.80409 4.90849 7.99409 3.76149L6.76909 4.62749C7.19109 5.22449 7.12609 6.02049 6.68109 6.48849L7.76809 7.52149ZM17.2561 14.4635C18.0771 14.9365 18.2381 16.0985 17.6251 16.7435L18.7121 17.7765C20.0171 16.4025 19.6371 14.1035 18.0051 13.1635L17.2561 14.4635ZM13.8471 13.5655C14.2321 13.1595 14.8331 13.0685 15.3461 13.3635L16.0941 12.0635C14.9951 11.4315 13.6341 11.6125 12.7591 12.5325L13.8471 13.5655ZM9.20909 17.0435C8.22609 16.4255 7.17909 15.5895 6.10609 14.4605L5.01909 15.4935C6.17309 16.7085 7.31609 17.6255 8.41109 18.3135L9.20909 17.0435ZM15.3491 18.7185C14.5162 18.7916 13.677 18.738 12.8601 18.5595L12.5531 20.0285C13.5196 20.2378 14.5122 20.2992 15.4971 20.2105L15.3491 18.7185Z" fill="#B2B2B2"/>
</svg>
