<svg width="24" height="24" viewBox="0 0 24 24" fill="none" xmlns="http://www.w3.org/2000/svg">
<path d="M19.485 20.154L13.223 13.892C12.723 14.318 12.148 14.6477 11.498 14.881C10.848 15.1144 10.1947 15.231 9.53798 15.231C7.93665 15.231 6.58132 14.6767 5.47198 13.568C4.36265 12.4587 3.80798 11.1037 3.80798 9.50304C3.80798 7.90238 4.36198 6.54671 5.46998 5.43604C6.57865 4.32471 7.93332 3.76904 9.53398 3.76904C11.1353 3.76904 12.4913 4.32371 13.602 5.43304C14.7127 6.54238 15.268 7.89804 15.268 9.50004C15.268 10.1947 15.145 10.867 14.899 11.517C14.6523 12.167 14.329 12.723 13.929 13.185L20.191 19.446L19.485 20.154ZM9.53798 14.23C10.8647 14.23 11.985 13.7734 12.899 12.86C13.8123 11.9467 14.269 10.8264 14.269 9.49904C14.269 8.17238 13.8123 7.05238 12.899 6.13904C11.9857 5.22571 10.8656 4.76904 9.53898 4.76904C8.21232 4.76904 7.09198 5.22571 6.17798 6.13904C5.26465 7.05238 4.80798 8.17238 4.80798 9.49904C4.80798 10.8257 5.26465 11.9457 6.17798 12.859C7.09132 13.7724 8.21132 14.23 9.53798 14.23Z" fill="#B2B2B2"/>
</svg>
